<?xml version="1.0" encoding="utf-8"?>
<!-- Generator: Adobe Illustrator 27.5.0, SVG Export Plug-In . SVG Version: 6.00 Build 0)  -->
<svg version="1.1" xmlns="http://www.w3.org/2000/svg" xmlns:xlink="http://www.w3.org/1999/xlink" x="0px" y="0px"
	 viewBox="0 0 500 500" style="enable-background:new 0 0 500 500;" xml:space="preserve">
<g id="BACKGROUND">
	<rect style="fill:#FFFFFF;" width="500" height="500"/>
</g>
<g id="OBJECTS">
	<g>
		<path style="fill:#EBF3FF;" d="M220.236,100.134c-25.107,11.782-52.114,17.745-79.324,22.303
			c-44.305,7.421-98.212,11.152-105.907,67.396c-3.209,23.457,3.301,51.164,13.41,72.208c12.187,25.369,15.863,52.725,17.07,80.604
			c0.618,14.264,1.047,29.382,8.825,41.353c9.959,15.328,29.311,21.418,47.401,24.042c38.419,5.573,78.236,0.611,115.792,10.438
			c28.061,7.342,53.335,22.563,80.276,33.31c39.65,15.816,83.05,16.354,115.103-15.311c52.387-51.753,11.636-153.341,5.28-214.968
			c-3.251-31.52-2.289-63.66-9.869-94.427c-7.58-30.767-25.846-61.218-55.341-72.807c-51.412-20.198-99.523,18.682-142.66,40.91
			C226.973,96.896,223.62,98.546,220.236,100.134z"/>
		<path style="fill:none;stroke:#EAA149;stroke-width:1.5;stroke-miterlimit:10;" d="M425.142,317.529h-8.114
			c-2.548,0-4.614-2.066-4.614-4.613v-8.114c0-2.548,2.066-4.614,4.614-4.614h8.114c2.548,0,4.613,2.066,4.613,4.614v8.114
			C429.755,315.463,427.69,317.529,425.142,317.529z"/>
		<path style="fill:none;stroke:#EAA149;stroke-width:1.5;stroke-miterlimit:10;" d="M401.2,255.507h-5.203
			c-1.634,0-2.958,1.325-2.958,2.958v5.203c0,1.634,1.325,2.958,2.958,2.958h5.203c1.634,0,2.958-1.324,2.958-2.958v-5.203
			C404.159,256.831,402.834,255.507,401.2,255.507z"/>
		<path style="fill:none;stroke:#EAA149;stroke-width:1.5;stroke-miterlimit:10;" d="M59.117,186.408H51.55
			c-2.376,0-4.303,1.926-4.303,4.303v7.567c0,2.376,1.926,4.303,4.303,4.303h7.567c2.376,0,4.303-1.926,4.303-4.303v-7.567
			C63.42,188.335,61.494,186.408,59.117,186.408z"/>
		<path style="fill:none;stroke:#EAA149;stroke-width:1.5;stroke-miterlimit:10;" d="M97.991,120.513H85.82
			c-3.822,0-6.921,3.099-6.921,6.921v12.171c0,3.822,3.099,6.921,6.921,6.921h12.171c3.822,0,6.921-3.099,6.921-6.921v-12.171
			C104.912,123.612,101.813,120.513,97.991,120.513z"/>
		<path style="fill:none;stroke:#EAA149;stroke-width:1.5;stroke-miterlimit:10;" d="M358.394,125.292h-6.085
			c-1.911,0-3.46,1.549-3.46,3.46v6.086c0,1.911,1.549,3.46,3.46,3.46h6.085c1.911,0,3.461-1.549,3.461-3.46v-6.086
			C361.854,126.841,360.305,125.292,358.394,125.292z"/>
		<path style="fill:none;stroke:#EAA149;stroke-width:1.5;stroke-miterlimit:10;" d="M100.067,423.804h-5.203
			c-1.634,0-2.958,1.324-2.958,2.958v5.203c0,1.634,1.325,2.959,2.958,2.959h5.203c1.634,0,2.958-1.325,2.958-2.959v-5.203
			C103.025,425.128,101.701,423.804,100.067,423.804z"/>
		<path style="fill:none;stroke:#EAA149;stroke-width:1.5;stroke-miterlimit:10;" d="M432.357,311.969h-5.203
			c-1.634,0-2.958,1.325-2.958,2.958v5.203c0,1.634,1.325,2.958,2.958,2.958h5.203c1.634,0,2.958-1.324,2.958-2.958v-5.203
			C435.315,313.293,433.99,311.969,432.357,311.969z"/>
		<g>
			
				<line style="fill:none;stroke:#9D88D3;stroke-width:1.5;stroke-miterlimit:10;" x1="398.599" y1="145.613" x2="398.599" y2="136.199"/>
			
				<line style="fill:none;stroke:#9D88D3;stroke-width:1.5;stroke-miterlimit:10;" x1="398.599" y1="161.641" x2="398.599" y2="152.228"/>
			
				<line style="fill:none;stroke:#9D88D3;stroke-width:1.5;stroke-miterlimit:10;" x1="401.906" y1="148.92" x2="411.32" y2="148.92"/>
			
				<line style="fill:none;stroke:#9D88D3;stroke-width:1.5;stroke-miterlimit:10;" x1="385.878" y1="148.92" x2="395.292" y2="148.92"/>
		</g>
		<g>
			
				<line style="fill:none;stroke:#9D88D3;stroke-width:1.5;stroke-miterlimit:10;" x1="435.315" y1="370.19" x2="435.315" y2="365.28"/>
			
				<line style="fill:none;stroke:#9D88D3;stroke-width:1.5;stroke-miterlimit:10;" x1="435.315" y1="378.55" x2="435.315" y2="373.64"/>
			
				<line style="fill:none;stroke:#9D88D3;stroke-width:1.5;stroke-miterlimit:10;" x1="437.04" y1="371.915" x2="441.95" y2="371.915"/>
			
				<line style="fill:none;stroke:#9D88D3;stroke-width:1.5;stroke-miterlimit:10;" x1="428.68" y1="371.915" x2="433.59" y2="371.915"/>
		</g>
		<g>
			
				<line style="fill:none;stroke:#9D88D3;stroke-width:1.5;stroke-miterlimit:10;" x1="42.262" y1="356.92" x2="42.262" y2="352.01"/>
			
				<line style="fill:none;stroke:#9D88D3;stroke-width:1.5;stroke-miterlimit:10;" x1="42.262" y1="365.28" x2="42.262" y2="360.37"/>
			
				<line style="fill:none;stroke:#9D88D3;stroke-width:1.5;stroke-miterlimit:10;" x1="43.987" y1="358.645" x2="48.897" y2="358.645"/>
			
				<line style="fill:none;stroke:#9D88D3;stroke-width:1.5;stroke-miterlimit:10;" x1="35.627" y1="358.645" x2="40.537" y2="358.645"/>
		</g>
		<g>
			
				<line style="fill:none;stroke:#9D88D3;stroke-width:1.5;stroke-miterlimit:10;" x1="74.83" y1="227.418" x2="74.83" y2="222.507"/>
			
				<line style="fill:none;stroke:#9D88D3;stroke-width:1.5;stroke-miterlimit:10;" x1="74.83" y1="235.778" x2="74.83" y2="230.868"/>
			
				<line style="fill:none;stroke:#9D88D3;stroke-width:1.5;stroke-miterlimit:10;" x1="76.555" y1="229.143" x2="81.465" y2="229.143"/>
			
				<line style="fill:none;stroke:#9D88D3;stroke-width:1.5;stroke-miterlimit:10;" x1="68.195" y1="229.143" x2="73.105" y2="229.143"/>
		</g>
		<g>
			
				<line style="fill:none;stroke:#9D88D3;stroke-width:1.5;stroke-miterlimit:10;" x1="170.648" y1="131.795" x2="170.648" y2="126.885"/>
			
				<line style="fill:none;stroke:#9D88D3;stroke-width:1.5;stroke-miterlimit:10;" x1="170.648" y1="140.155" x2="170.648" y2="135.245"/>
			
				<line style="fill:none;stroke:#9D88D3;stroke-width:1.5;stroke-miterlimit:10;" x1="172.373" y1="133.52" x2="177.283" y2="133.52"/>
			
				<line style="fill:none;stroke:#9D88D3;stroke-width:1.5;stroke-miterlimit:10;" x1="164.013" y1="133.52" x2="168.923" y2="133.52"/>
		</g>
		<g>
			
				<line style="fill:none;stroke:#9D88D3;stroke-width:1.5;stroke-miterlimit:10;" x1="371.062" y1="421.41" x2="371.062" y2="414.596"/>
			
				<line style="fill:none;stroke:#9D88D3;stroke-width:1.5;stroke-miterlimit:10;" x1="371.062" y1="433.012" x2="371.062" y2="426.198"/>
			
				<line style="fill:none;stroke:#9D88D3;stroke-width:1.5;stroke-miterlimit:10;" x1="373.456" y1="423.804" x2="380.27" y2="423.804"/>
			
				<line style="fill:none;stroke:#9D88D3;stroke-width:1.5;stroke-miterlimit:10;" x1="361.854" y1="423.804" x2="368.668" y2="423.804"/>
		</g>
		<g>
			
				<line style="fill:none;stroke:#9D88D3;stroke-width:1.5;stroke-miterlimit:10;" x1="150.36" y1="144.132" x2="150.36" y2="137.318"/>
			
				<line style="fill:none;stroke:#9D88D3;stroke-width:1.5;stroke-miterlimit:10;" x1="150.36" y1="155.734" x2="150.36" y2="148.92"/>
			
				<line style="fill:none;stroke:#9D88D3;stroke-width:1.5;stroke-miterlimit:10;" x1="152.753" y1="146.526" x2="159.567" y2="146.526"/>
			
				<line style="fill:none;stroke:#9D88D3;stroke-width:1.5;stroke-miterlimit:10;" x1="141.152" y1="146.526" x2="147.966" y2="146.526"/>
		</g>
	</g>
	<g>
		<defs>
			<rect id="SVGID_1_" width="500" height="500"/>
		</defs>
		<clipPath id="SVGID_00000064326505477039051800000016155743767412388797_">
			<use xlink:href="#SVGID_1_"  style="overflow:visible;"/>
		</clipPath>
		<g style="clip-path:url(#SVGID_00000064326505477039051800000016155743767412388797_);">
			<g>
				<path style="fill:#1D1C23;" d="M321.147,394.675c0,0,21.044,45.167,28.651,80.86c4.12,19.331,14.475,169.41,14.475,169.41
					H138.698c0,0,2.149-70.332,4.059-98.758c2.772-41.259,13.583-85.016,22.725-123.765c0.913-3.412,12.858-48.675,12.858-48.675
					l140.269,4.811L321.147,394.675z"/>
				<path style="fill:none;stroke:#585668;stroke-width:1.5;stroke-miterlimit:10;" d="M303.97,398.923
					c0,0,20.294,44.059,23.734,74.024c7.778,67.757,7.491,126.351,9.988,169.799"/>
				<path style="fill:none;stroke:#585668;stroke-width:1.5;stroke-miterlimit:10;" d="M177.737,467.755
					c22.336,6.357,45.312,10.459,68.468,12.224"/>
				<path style="fill:none;stroke:#585668;stroke-width:1.5;stroke-miterlimit:10;" d="M194.135,458.184
					c31.965,1.658,64.019,1.588,95.977-0.211"/>
			</g>
			<g>
				<path style="fill:#303556;" d="M353.311,178.632c-5.742-3.679-12.8-5.016-20.314-5.68c-2.056-0.182-21.05-0.901-21.212,0.652
					c0.416-10.895-7.033-22.22-25.851-25.598l-79.67,2.238c-13.295-1.492-26.758,9.082-28.305,22.232
					c-7.779-1.74-15.221-1.119-22.317,1.895c-20.546,8.725-32.912,31.926-23.534,53.39c3.303,7.559,10.371,13.04,18.103,16.083
					c7.732,3.043,16.144,3.914,24.449,4.392c1.289,0.074,2.655,0.164,3.711,0.9c0.853,0.594,1.385,1.529,1.901,2.426
					c6.818,11.844,16.007,22.586,27.732,29.739c11.725,7.153,26.14,10.468,39.57,7.481c13.66-3.038,25.153-12.15,34.634-22.339
					c-1.851,1.99,19.329,15.149,21.673,16.069c9.468,3.717,19.72,5.625,29.898,4.878c12.804-0.939,25.439-6.255,34.27-15.573
					c8.83-9.319,13.938-22.816,11.286-35.377c-3.091-14.647-15.548-19.082-15.548-19.082s2.642-5.687,3.255-12.435
					c0.576-6.331-0.656-11.024-3.834-16.717C360.922,184.11,356.673,180.787,353.311,178.632z"/>
				<path style="fill:#F4AB92;" d="M211.95,174.461c0,0,3.138,25.57,2.177,27.252c-0.961,1.682-8.893,3.215-8.893,3.215
					s28.316,16.548,28.643,15.375c0.327-1.173,54.875-21.614,54.875-21.614s-13.107-8.852-16.03-17.562
					c-2.923-8.71-10.759-47.313-10.759-47.313l-45.179,14.615L211.95,174.461z"/>
				<path style="fill:#F4AB92;" d="M248.301,83.014c-10.172-4.862-15.208-2.232-25.178,2.871
					c-21.553,11.032-27.381,34.299-30.828,55.328c-1.306,7.968-2.574,20.327,1.499,27.298c5.261,9.006,14.441,11.903,24.847,11.189
					c31.651-2.172,55.663-31.898,52.932-62.267c-1.167-12.979-8.142-25.545-19.427-32.352
					C250.925,84.346,249.639,83.654,248.301,83.014z"/>
				<path style="fill:#303556;" d="M299.434,121.035c-0.229,14.317-6.326,27.558-19.1,35.582
					c-2.032,1.277-11.641,5.071-11.641,5.071s-1.954-6.123-2.109-7.974c-0.231-2.762-0.12-5.541,0.009-8.305
					c0.032-0.675,0.053-1.392-0.283-1.979c-0.259-0.453-0.699-0.768-1.119-1.076c-8.809-6.474-11.669-9.808-16.876-19.421
					c-2.316-4.275-7.402-20.568-8.462-31.165c-8.231-2.972-30.724-10.147-42.992,28.758c-1.938-2.399-3.738-6.431-4.313-9.031
					c-2.048-9.266-0.362-15.35,4.702-23.057c9.848-14.988,28.981-20.74,46.09-16.217c2.248,0.594,4.482,1.366,6.806,1.449
					c1.181,0.042,2.359-0.095,3.537-0.183c8.602-0.639,17.386,1.463,24.768,5.926c7.381,4.463,13.323,11.266,16.753,19.18
					c2.12,4.892,3.289,10.157,3.887,15.454C299.355,116.392,299.47,118.728,299.434,121.035z"/>
				<g>
					<path style="fill:#F4AB92;" d="M256.055,143.696c3.646-4.407,9.916-5.692,13.565-3.816c5.411,2.782,6.275,9.516,4.832,14.715
						c-1.314,4.736-3.695,8.448-7.783,11.496c-3.841,2.863-10.592,5.144-14.87,2.768c-2.912-1.618-3.379-5.973-2.718-8.832"/>
					
						<line style="fill:none;stroke:#000000;stroke-width:1.5;stroke-miterlimit:10;" x1="253.19" y1="156.984" x2="269.346" y2="150.223"/>
					<path style="fill:none;stroke:#000000;stroke-width:1.5;stroke-miterlimit:10;" d="M248.548,161.159
						c0.106,1.715,0.198,7.372,5.398,8.623c2.364,0.569,7.323,1.099,14.586-5.236"/>
					<path style="fill:none;stroke:#000000;stroke-width:1.5;stroke-miterlimit:10;" d="M255.783,143.29
						c1.646-1.411,7.912-7.143,15.709-2.147"/>
				</g>
				<path style="fill:none;stroke:#000000;stroke-width:1.5;stroke-miterlimit:10;" d="M216.776,123.712
					c-0.702,3.454-1.968,6.796-3.715,9.865c-1.312,2.306-3.292,3.998-4.688,6.174c-0.519,0.809-0.825,1.802-0.623,2.734
					c0.55,2.533,3.91,4.02,5.825,5.313"/>
				<ellipse transform="matrix(0.1586 -0.9873 0.9873 0.1586 65.9577 341.783)" cx="233.512" cy="132.192" rx="3.967" ry="2.549"/>
				<path d="M207.751,128.055c-0.348,2.163-1.756,3.736-3.146,3.513c-1.39-0.223-2.235-2.158-1.888-4.321
					c0.348-2.163,1.756-3.736,3.146-3.513C207.253,123.956,208.098,125.891,207.751,128.055z"/>
				<path style="fill:none;stroke:#000000;stroke-width:1.5;stroke-miterlimit:10;" d="M209.544,152.953
					c3.641,2.284,8.605,2.248,12.213-0.088"/>
				<path style="fill:none;stroke:#000000;stroke-width:1.5;stroke-miterlimit:10;" d="M233.512,114.387
					c6.01,3.732,10.891,9.325,14.804,15.551"/>
				<path style="fill:none;stroke:#000000;stroke-width:1.5;stroke-miterlimit:10;" d="M199.069,114.875
					c1.616-1.979,4.309-2.636,6.805-3.178c1.903-0.413,3.807-0.826,5.71-1.239"/>
				<path style="fill:none;stroke:#D46A4E;stroke-width:2;stroke-miterlimit:10;" d="M302.7,145.131
					c2.878,0.008,5.902,0.532,8.131,2.353c1.362,1.113,2.388,2.912,1.902,4.603c-0.614,2.138-3.163,2.968-5.357,3.327
					c-3.914,0.641-8.144,0.784-11.889-0.713c-1.998-0.798-6.997-3.3-5.496-6.18C291.552,145.528,299.841,145.122,302.7,145.131z"/>
				<path style="fill:none;stroke:#D46A4E;stroke-width:2;stroke-miterlimit:10;" d="M289.714,148.456
					c15.529,0.847,30.731,10.748,41.446,26.993"/>
				<path style="fill:none;stroke:#000000;stroke-width:1.5;stroke-miterlimit:10;" d="M212.231,180.339
					c10.907,0.603,22.468-2.726,31.659-8.629"/>
			</g>
			<g>
				<polyline style="fill:#FFFFFF;" points="95.598,340.145 85.649,324.676 127.935,309.688 141.249,321.929 				"/>
				<path style="fill:#E577AE;" d="M176.367,345.324l-42.215-33.91c-4.307,1.693-46.367,18.224-46.367,18.224
					s22.84,37.27,36.757,51.774c12.615,13.147,34.025,21.978,48.371,18.129c37.367-10.026,35.328-101.362,35.328-127.977
					l-14.245-66.368c0,0-12.112,4.744-24.757,10.966c-12.478,6.14-18.768,14.904-20.335,26.462
					c-1.584,11.684-6.021,89.443-6.021,89.443"/>
				<polygon style="fill:#FFFFFF;" points="320.002,212.892 295.109,194.138 284.449,189.821 230.185,213.646 207.513,200.147 
					193.995,205.195 176.959,300.336 233.704,351.471 				"/>
				
					<line style="fill:none;stroke:#000000;stroke-width:1.5;stroke-miterlimit:10;" x1="230.185" y1="213.646" x2="222.07" y2="325.719"/>
				<g>
					<polygon style="fill:#FFFFFF;" points="276.061,180.297 230.185,213.646 250,242.624 290.778,191.921 					"/>
					<polygon style="fill:#FFFFFF;" points="230.185,213.646 210.928,190.911 197.616,203.689 211.871,239.059 					"/>
					<g>
						<polyline style="fill:none;stroke:#000000;stroke-width:1.5;stroke-miterlimit:10;" points="197.616,203.689 211.871,239.059 
							230.185,213.646 250,242.624 290.778,191.921 						"/>
					</g>
				</g>
				<path style="fill:#E577AE;" d="M295.109,194.138c-23.777,41.288-68.352,106.198-68.352,106.198l-32.762-95.141l-16.844,9.353
					l1.189,44.566c0,0-12.941,24.648-12.941,43.966c0,13.989,3.564,22.803,4.398,32.163c1.724,19.339,0.732,37.507-0.257,49.327
					c-1.031,12.323-12.242,54.976-12.242,54.976l46.678,9.344c3.175,0.635,6.296-1.312,7.119-4.444l13.096-49.772l13.982,51.666
					c0.817,3.019,3.779,4.936,6.867,4.445l94.794-15.057c0,0-22.237-58.576-22.723-65.866c-0.486-7.29,8.75-114.59,8.75-114.59
					l9.547-46.202L295.109,194.138z"/>
				<path style="fill:none;stroke:#000000;stroke-width:1.5;stroke-miterlimit:10;" d="M178.34,259.114
					c0,0-12.941,24.648-12.941,43.966c0,13.989,3.564,22.803,4.398,32.163c1.724,19.339-2.073,53.454-3.062,65.274"/>
				<polyline style="fill:none;stroke:#000000;stroke-width:1.5;stroke-miterlimit:10;" points="315.537,201.708 288.41,256.485 
					271.161,259.246 286.895,269.244 226.757,300.336 191.362,272.81 197.765,259.114 185.299,259.748 169.239,216.162 				"/>
				<circle cx="233.551" cy="305.223" r="4.032"/>
				<circle cx="233.551" cy="342.523" r="4.032"/>
				<path d="M236.27,388.289c0,2.227-1.805,4.032-4.032,4.032c-2.227,0-4.032-1.805-4.032-4.032c0-2.227,1.805-4.032,4.032-4.032
					C234.465,384.257,236.27,386.062,236.27,388.289z"/>
				
					<line style="fill:none;stroke:#000000;stroke-width:1.5;stroke-miterlimit:10;" x1="224.191" y1="394.675" x2="226.757" y2="300.336"/>
				
					<line style="fill:none;stroke:#000000;stroke-width:1.5;stroke-miterlimit:10;" x1="143.603" y1="319.695" x2="170.084" y2="339.664"/>
				
					<line style="fill:none;stroke:#000000;stroke-width:1.5;stroke-miterlimit:10;" x1="98.827" y1="325.719" x2="118.898" y2="351.471"/>
				
					<line style="fill:none;stroke:#000000;stroke-width:1.5;stroke-miterlimit:10;" x1="98.135" y1="331.646" x2="93.759" y2="333.432"/>
				
					<line style="fill:none;stroke:#000000;stroke-width:1.5;stroke-miterlimit:10;" x1="103.96" y1="339.252" x2="99.584" y2="341.038"/>
				
					<line style="fill:none;stroke:#000000;stroke-width:1.5;stroke-miterlimit:10;" x1="109.785" y1="346.858" x2="105.408" y2="348.645"/>
			</g>
			<g>
				<polygon style="fill:#FFFFFF;" points="225.363,339.664 124.035,325.574 81.584,170.881 182.912,184.97 				"/>
				<g>
					<path style="fill:#D46A4E;" d="M96.236,187.212c0.741,0.097,1.386,0.278,1.935,0.542c0.549,0.264,1.003,0.609,1.364,1.036
						c0.361,0.427,0.626,0.935,0.795,1.523c0.105,0.366,0.145,0.692,0.119,0.977c-0.025,0.286-0.107,0.533-0.246,0.742
						c-0.139,0.209-0.326,0.384-0.562,0.523l3.508,4.241l-2.502-0.328l-2.674-3.508l-0.558-0.073l0.943,3.281l-2.206-0.29
						l-2.591-9.017L96.236,187.212z M96.732,189.052l-0.436-0.057l0.592,2.06l0.413,0.054c0.339,0.045,0.593-0.001,0.761-0.137
						c0.169-0.136,0.192-0.416,0.07-0.84c-0.084-0.292-0.239-0.532-0.464-0.719C97.443,189.224,97.131,189.104,96.732,189.052z"/>
					<path style="fill:#D46A4E;" d="M109.196,197.59l-4.848-0.637l-2.591-9.017l4.847,0.637l0.562,1.955l-2.641-0.347l0.408,1.419
						l2.446,0.321l0.562,1.955l-2.446-0.321l0.489,1.702l2.641,0.347L109.196,197.59z"/>
					<path style="fill:#D46A4E;" d="M115.623,195.799c0.141,0.489,0.162,0.938,0.064,1.346c-0.097,0.409-0.343,0.718-0.736,0.927
						s-0.962,0.265-1.706,0.168c-0.372-0.049-0.705-0.111-0.996-0.184c-0.292-0.074-0.571-0.169-0.837-0.285
						c-0.266-0.116-0.549-0.259-0.849-0.429l-0.624-2.171c0.514,0.305,1.015,0.552,1.503,0.74c0.487,0.189,0.914,0.307,1.279,0.355
						c0.22,0.029,0.391,0.024,0.514-0.016c0.123-0.039,0.204-0.105,0.242-0.196c0.038-0.092,0.039-0.204,0-0.335
						c-0.045-0.156-0.132-0.295-0.262-0.417c-0.13-0.122-0.32-0.257-0.57-0.404c-0.25-0.148-0.578-0.333-0.982-0.557
						c-0.346-0.196-0.665-0.392-0.956-0.589c-0.291-0.196-0.553-0.412-0.787-0.646c-0.234-0.234-0.439-0.5-0.613-0.796
						c-0.174-0.296-0.317-0.637-0.429-1.024c-0.166-0.579-0.177-1.049-0.031-1.407c0.146-0.359,0.422-0.607,0.829-0.743
						c0.407-0.136,0.914-0.165,1.52-0.085c0.533,0.07,1.031,0.199,1.495,0.386c0.464,0.187,0.89,0.388,1.277,0.601l-0.135,1.792
						c-0.401-0.223-0.786-0.409-1.154-0.558c-0.369-0.149-0.699-0.243-0.989-0.281c-0.19-0.025-0.338-0.02-0.444,0.016
						c-0.106,0.035-0.176,0.093-0.209,0.171c-0.033,0.079-0.034,0.174-0.001,0.285c0.04,0.14,0.125,0.272,0.256,0.396
						c0.131,0.124,0.331,0.266,0.601,0.426c0.27,0.16,0.636,0.37,1.097,0.628c0.455,0.249,0.855,0.507,1.2,0.772
						c0.345,0.265,0.637,0.566,0.875,0.904C115.301,194.927,115.488,195.33,115.623,195.799z"/>
					<path style="fill:#D46A4E;" d="M118.157,198.767l-2.591-9.017l2.217,0.291l2.591,9.017L118.157,198.767z"/>
					<path style="fill:#D46A4E;" d="M124.332,194.497l3.524,0.463l1.396,4.859c-0.375,0.105-0.819,0.173-1.334,0.202
						c-0.515,0.029-1.07,0.005-1.665-0.073c-0.786-0.103-1.523-0.362-2.212-0.777c-0.689-0.415-1.298-0.989-1.827-1.721
						c-0.53-0.732-0.945-1.625-1.247-2.677c-0.272-0.946-0.343-1.742-0.213-2.387c0.13-0.645,0.46-1.115,0.99-1.407
						c0.53-0.292,1.259-0.378,2.186-0.256c0.51,0.067,1.01,0.184,1.498,0.351c0.488,0.167,0.926,0.355,1.312,0.564l-0.149,1.82
						c-0.34-0.199-0.68-0.359-1.02-0.481c-0.34-0.121-0.692-0.206-1.056-0.255c-0.488-0.064-0.845,0.006-1.071,0.21
						c-0.227,0.204-0.348,0.499-0.366,0.886c-0.018,0.387,0.044,0.826,0.184,1.315c0.161,0.559,0.368,1.04,0.622,1.444
						c0.254,0.403,0.548,0.723,0.883,0.958c0.335,0.236,0.699,0.38,1.094,0.431c0.13,0.017,0.286,0.028,0.468,0.032
						c0.182,0.004,0.317-0.002,0.406-0.018l-0.406-1.412l-1.458-0.191L124.332,194.497z"/>
					<path style="fill:#D46A4E;" d="M139.285,201.541l-2.892-0.38l-4.807-6.744l-0.05-0.007c0.074,0.196,0.157,0.43,0.25,0.703
						c0.093,0.274,0.186,0.552,0.277,0.835c0.092,0.283,0.171,0.538,0.236,0.764l1.168,4.064l-1.955-0.257l-2.591-9.017l2.881,0.378
						l4.771,6.656l0.033,0.004c-0.068-0.199-0.145-0.429-0.231-0.692c-0.086-0.262-0.172-0.528-0.258-0.796
						c-0.086-0.269-0.159-0.505-0.218-0.711l-1.171-4.076l1.966,0.258L139.285,201.541z"/>
					<path style="fill:#D46A4E;" d="M146.524,202.491l-0.888-1.743l-2.653-0.348l0.072,1.636l-2.424-0.318l0.062-8.704l2.943,0.386
						l5.299,9.408L146.524,202.491z M144.604,198.69l-0.777-1.526c-0.083-0.165-0.203-0.401-0.359-0.709
						c-0.157-0.307-0.315-0.625-0.475-0.953c-0.161-0.328-0.289-0.597-0.385-0.807c0.026,0.201,0.051,0.449,0.077,0.743
						c0.025,0.294,0.048,0.585,0.068,0.872s0.034,0.527,0.042,0.718l0.074,1.434L144.604,198.69z"/>
					<path style="fill:#D46A4E;" d="M153.86,203.455l-2.206-0.29l-2.018-7.024l-1.994-0.262l-0.572-1.992l6.187,0.812l0.573,1.992
						l-1.988-0.261L153.86,203.455z"/>
					<path style="fill:#D46A4E;" d="M157.48,203.93l-2.591-9.017l2.217,0.291l2.591,9.017L157.48,203.93z"/>
					<path style="fill:#D46A4E;" d="M168.26,200.995c0.2,0.695,0.306,1.317,0.318,1.867c0.013,0.55-0.082,1.009-0.284,1.378
						c-0.202,0.369-0.523,0.631-0.962,0.785c-0.439,0.154-1.009,0.185-1.709,0.093c-0.685-0.09-1.309-0.278-1.874-0.564
						c-0.564-0.285-1.066-0.654-1.508-1.106c-0.442-0.452-0.823-0.974-1.143-1.566c-0.321-0.592-0.582-1.24-0.784-1.943
						c-0.27-0.938-0.363-1.734-0.281-2.39c0.082-0.656,0.362-1.135,0.841-1.438c0.479-0.303,1.176-0.395,2.092-0.274
						c0.931,0.122,1.742,0.413,2.435,0.872c0.692,0.459,1.274,1.054,1.746,1.784C167.619,199.224,167.99,200.058,168.26,200.995z
						 M162.642,200.258c0.156,0.543,0.346,1.016,0.57,1.422c0.224,0.405,0.487,0.728,0.789,0.97s0.649,0.388,1.04,0.439
						c0.406,0.053,0.698-0.009,0.878-0.187c0.18-0.178,0.267-0.455,0.261-0.832c-0.006-0.377-0.087-0.836-0.243-1.379
						c-0.234-0.814-0.542-1.474-0.923-1.979c-0.381-0.505-0.872-0.797-1.471-0.876c-0.398-0.053-0.689,0.012-0.871,0.194
						c-0.182,0.182-0.271,0.463-0.268,0.843C162.406,199.253,162.486,199.715,162.642,200.258z"/>
					<path style="fill:#D46A4E;" d="M179.275,206.792l-2.892-0.38l-4.807-6.744l-0.05-0.007c0.074,0.196,0.157,0.43,0.25,0.703
						c0.093,0.274,0.185,0.552,0.277,0.835c0.092,0.283,0.171,0.538,0.236,0.764l1.168,4.064l-1.955-0.257l-2.591-9.017l2.881,0.378
						l4.771,6.656l0.033,0.004c-0.068-0.199-0.145-0.429-0.231-0.692c-0.086-0.262-0.173-0.528-0.258-0.796
						c-0.086-0.269-0.159-0.506-0.218-0.711l-1.171-4.077l1.966,0.258L179.275,206.792z"/>
				</g>
				<g>
					<defs>
						<polygon id="SVGID_00000088839044398378230760000012324298601591274424_" points="211.311,327.582 129.605,316.173 
							95.23,190.911 176.937,202.32 						"/>
					</defs>
					<clipPath id="SVGID_00000011720060188875102990000010923151650282754483_">
						<use xlink:href="#SVGID_00000088839044398378230760000012324298601591274424_"  style="overflow:visible;"/>
					</clipPath>
					<g style="clip-path:url(#SVGID_00000011720060188875102990000010923151650282754483_);">
						
							<line style="fill:none;stroke:#DFE1ED;stroke-width:3;stroke-miterlimit:10;" x1="210.147" y1="221.038" x2="99.455" y2="205.553"/>
						
							<line style="fill:none;stroke:#DFE1ED;stroke-width:3;stroke-miterlimit:10;" x1="213.047" y1="232.324" x2="102.355" y2="216.839"/>
						
							<line style="fill:none;stroke:#DFE1ED;stroke-width:3;stroke-miterlimit:10;" x1="215.947" y1="243.61" x2="105.255" y2="228.125"/>
						
							<line style="fill:none;stroke:#DFE1ED;stroke-width:3;stroke-miterlimit:10;" x1="218.847" y1="254.895" x2="108.155" y2="239.41"/>
						
							<line style="fill:none;stroke:#DFE1ED;stroke-width:3;stroke-miterlimit:10;" x1="221.747" y1="266.181" x2="111.055" y2="250.696"/>
						
							<line style="fill:none;stroke:#DFE1ED;stroke-width:3;stroke-miterlimit:10;" x1="224.647" y1="277.467" x2="113.955" y2="261.982"/>
						
							<line style="fill:none;stroke:#DFE1ED;stroke-width:3;stroke-miterlimit:10;" x1="227.547" y1="288.752" x2="116.855" y2="273.267"/>
						
							<line style="fill:none;stroke:#DFE1ED;stroke-width:3;stroke-miterlimit:10;" x1="230.447" y1="300.038" x2="119.755" y2="284.553"/>
						
							<line style="fill:none;stroke:#DFE1ED;stroke-width:3;stroke-miterlimit:10;" x1="233.347" y1="311.324" x2="122.655" y2="295.839"/>
						
							<line style="fill:none;stroke:#DFE1ED;stroke-width:3;stroke-miterlimit:10;" x1="236.247" y1="322.609" x2="125.555" y2="307.124"/>
						
							<line style="fill:none;stroke:#DFE1ED;stroke-width:3;stroke-miterlimit:10;" x1="239.147" y1="333.895" x2="128.455" y2="318.41"/>
					</g>
				</g>
			</g>
			<g>
				<path style="fill:#F4AB92;" d="M129.283,230.388c-1.544-1.03-5.18,2.02-5.18,2.02s2.244-3.683,1.753-7.758
					c-0.171-1.418-1.044-3.429-2.432-2.78c-1.389,0.649-5.495,5.475-5.495,5.475s2.565-5.869,1.807-8.962
					c-0.693-2.829-2.355-3.316-3.284-2.493c-2.708,2.399-6.088,7.246-6.088,7.246s1.169-2.053,1.101-4.266
					c-0.069-2.213,0.201-3.284-1.764-3.284c-1.806,0-13.153,10.185-18.144,16.825c-1.405,1.869-6.4,10.313-7.438,12.407
					c-1.066,2.151-1.727,4.478-2.332,6.801c-2.435,9.344-2.147,17.428-2.979,27.049c-0.753,8.704,1.405,22.721,4.219,31.121
					c2.629,7.848,5.564,13.841,5.564,13.841l32.668-11.658l-3.206-10.599c4.031-4.881,4.71-12.611,5.611-19.228
					c0.83-6.099-2.244-10.889-1.677-17.019c0.178-1.923,0.531-3.825,0.942-5.711c1.167-5.354,3.5-11.057,5.238-16.196
					C129.516,239.228,131.472,231.847,129.283,230.388z"/>
				<path style="fill:none;stroke:#000000;stroke-width:1.5;stroke-miterlimit:10;" d="M110.613,309.688
					c2.377-2.233,6.371-5.588,8.285-8.229"/>
				<path style="fill:none;stroke:#000000;stroke-width:1.5;stroke-miterlimit:10;" d="M124.542,231.349
					c-2.444,4.891-5.29,9.803-8.089,14.499c-3.12,5.234-5.95,12.658-7.181,18.626"/>
				<path style="fill:none;stroke:#000000;stroke-width:1.5;stroke-miterlimit:10;" d="M118.462,225.992
					c0,0-7.834,10.303-11.461,15.428c-3.01,4.253-5.077,11.732-6.875,16.622"/>
				<path style="fill:none;stroke:#000000;stroke-width:1.5;stroke-miterlimit:10;" d="M110.613,221.91
					c0,0-7.944,9.201-11.513,13.721c-3.588,4.544-6.103,9.93-7.284,15.598"/>
			</g>
			<g>
				<g>
					<path style="fill:#F4AB92;" d="M284.961,321.602c-1.866-0.159-16.357-5.151-17.879-6.188
						c-10.792-7.356-20.036-17.018-32.119-22.237c-4.043-1.746-8.336-2.959-12.276-4.907c-4.56-2.254-11.346-7.557-12.93-6.864
						c-1.577,0.69-2.16,4.737,0.905,8.675c1.889,2.427,3.675,3.317,5.12,5.004c-8.11-0.721-11.287-1.237-18.408-4.979
						c-2.707-1.422-10.153-5.424-13.094-6.333c-2.941-0.909-6.503-0.584-6.89,1.13c-0.386,1.714,3.815,5.42,3.815,5.42
						s-6.282-2.685-8.137-0.535c-1.481,1.716,6.413,9.813,6.413,9.813s-2.903-0.567-4.129,0.122
						c-1.216,0.684-0.689,2.456,0.025,3.609c2.266,3.661,8.631,9.329,8.631,9.329s-4.53-1.134-4.378,1.255
						c0.081,1.273,1.809,3.201,2.719,4.125c9.696,9.855,21.002,18.756,33.434,25.549c13.128,7.174,26.874,10.406,41.138,14.613"/>
					<path style="fill:none;stroke:#000000;stroke-width:1.5;stroke-miterlimit:10;" d="M215.155,294.752
						c3.934,0.093,9.899,0.041,13.83-0.131"/>
					<path style="fill:none;stroke:#000000;stroke-width:1.5;stroke-miterlimit:10;" d="M180.723,290.443
						c1.88,1.423,3.76,2.845,5.64,4.268c8.003,6.056,16.393,12.289,26.256,14.144"/>
					<path style="fill:none;stroke:#000000;stroke-width:1.5;stroke-miterlimit:10;" d="M179.447,300.015
						c7.807,7.599,15.852,15.36,25.854,19.68"/>
					<path style="fill:none;stroke:#000000;stroke-width:1.5;stroke-miterlimit:10;" d="M183.367,312.861
						c6.746,6.202,13.824,12.011,21.69,16.713"/>
				</g>
				<polyline style="fill:#FFFFFF;" points="286.143,321.504 265.92,314.175 247.899,364.022 273.769,371.302 				"/>
				<path style="fill:#E577AE;" d="M382.299,326.966c-10.079-41.17-24.433-99.746-32.194-108.182
					c-10.658-11.585-30.529-15.326-30.529-15.326l-15.872,63.488l10.718,58.773l-43.741-9.436l-19.992,56.705
					c0,0,61.073,18.375,94.564,24.865C386.993,405.942,392.05,366.795,382.299,326.966z"/>
				<polyline style="fill:none;stroke:#000000;stroke-width:1.5;stroke-miterlimit:10;" points="303.703,266.946 314.421,325.719 
					270.68,316.283 				"/>
				<path style="fill:none;stroke:#000000;stroke-width:1.5;stroke-miterlimit:10;" d="M314.421,325.719
					c0,0,42.767,10.357,46.802,12.509c4.035,2.152,8.876,6.456,12.104,9.953"/>
				
					<line style="fill:none;stroke:#000000;stroke-width:1.5;stroke-miterlimit:10;" x1="255.426" y1="359.549" x2="286.895" y2="368.985"/>
				
					<line style="fill:none;stroke:#000000;stroke-width:1.5;stroke-miterlimit:10;" x1="260.554" y1="364.891" x2="258.889" y2="369.782"/>
				
					<line style="fill:none;stroke:#000000;stroke-width:1.5;stroke-miterlimit:10;" x1="269.774" y1="368.096" x2="268.11" y2="372.988"/>
				
					<line style="fill:none;stroke:#000000;stroke-width:1.5;stroke-miterlimit:10;" x1="278.994" y1="371.302" x2="277.33" y2="376.193"/>
				
					<line style="fill:none;stroke:#000000;stroke-width:1.5;stroke-miterlimit:10;" x1="250.688" y1="372.988" x2="324.265" y2="393.19"/>
			</g>
		</g>
	</g>
</g>
</svg>
